<svg width="96" height="33" viewBox="0 0 96 33" fill="none" xmlns="http://www.w3.org/2000/svg">
<mask id="path-1-outside-1_61_255" maskUnits="userSpaceOnUse" x="0.42041" y="0.167969" width="95" height="33" fill="black">
<rect fill="white" x="0.42041" y="0.167969" width="95" height="33"/>
<path d="M1.42041 10.8134H2.44925V14.0285C2.92081 12.9568 3.72459 12.0994 4.8606 11.4564C5.99662 10.7919 7.25052 10.4597 8.62231 10.4597C10.4013 10.4597 11.8053 11.0277 12.8341 12.1637C13.8844 13.2783 14.4095 14.843 14.4095 16.8578V25.2815H13.3807V16.8578C13.3807 15.1216 12.952 13.7713 12.0947 12.8067C11.2587 11.8422 10.0798 11.3599 8.55801 11.3599C7.44343 11.3599 6.41458 11.6172 5.47148 12.1316C4.54981 12.6246 3.81033 13.3105 3.25304 14.1893C2.71718 15.0681 2.44925 16.0647 2.44925 17.1793V25.2815H1.42041V10.8134Z"/>
<path d="M25.5105 24.767C26.6251 24.767 27.6861 24.4777 28.6935 23.899C29.7009 23.3202 30.5369 22.5272 31.2013 21.5198V23.1595C30.4083 24.0383 29.5402 24.6813 28.5971 25.0886C27.654 25.4744 26.5823 25.6673 25.3819 25.6673C24.053 25.6673 22.7991 25.3136 21.6202 24.6063C20.4628 23.899 19.5304 22.9559 18.8231 21.777C18.1372 20.5981 17.7942 19.3442 17.7942 18.0153C17.7942 16.5792 18.1372 15.2931 18.8231 14.1571C19.509 12.9997 20.4414 12.0994 21.6202 11.4564C22.8205 10.8134 24.1495 10.4919 25.607 10.4919C27.8362 10.4919 29.7331 11.3707 31.2978 13.1283L21.2023 23.0952C21.9096 23.6739 22.5955 24.1026 23.26 24.3812C23.9244 24.6384 24.6746 24.767 25.5105 24.767ZM18.8231 17.9188C18.8231 19.6978 19.4125 21.2197 20.5914 22.4843L30.0117 13.1283C29.3044 12.5067 28.6185 12.0673 27.954 11.8101C27.2896 11.5314 26.4965 11.3921 25.5748 11.3921C24.2674 11.3921 23.0992 11.6815 22.0704 12.2602C21.0629 12.8175 20.2699 13.5891 19.6912 14.5751C19.1124 15.561 18.8231 16.6756 18.8231 17.9188Z"/>
<path d="M41.3298 25.6351C39.958 25.6351 38.6826 25.2922 37.5037 24.6063C36.3249 23.9204 35.3925 22.9987 34.7066 21.8413C34.0207 20.6624 33.6777 19.3978 33.6777 18.0474C33.6777 16.6971 34.0207 15.4432 34.7066 14.2857C35.3925 13.1068 36.3249 12.1744 37.5037 11.4885C38.6826 10.8026 39.958 10.4597 41.3298 10.4597C42.723 10.4597 44.0412 10.8348 45.2844 11.585C46.5275 12.3138 47.3956 13.2676 47.8886 14.4465V10.8134H48.9175V25.2815H47.8886V21.6805C47.3099 22.8808 46.4097 23.8454 45.1879 24.5741C43.9876 25.2815 42.7015 25.6351 41.3298 25.6351ZM41.3941 24.7349C42.5729 24.7349 43.6661 24.4348 44.6735 23.8347C45.6809 23.2131 46.474 22.3986 47.0527 21.3912C47.6528 20.3623 47.9529 19.2477 47.9529 18.0474C47.9529 16.8685 47.6528 15.7647 47.0527 14.7358C46.4525 13.707 45.6487 12.8925 44.6413 12.2923C43.6339 11.6707 42.5408 11.3599 41.3619 11.3599C40.183 11.3599 39.0792 11.6707 38.0503 12.2923C37.0429 12.9139 36.2284 13.7391 35.6068 14.768C35.0067 15.7968 34.7066 16.9007 34.7066 18.0796C34.7066 19.2584 35.0067 20.3623 35.6068 21.3912C36.2284 22.3986 37.0536 23.2131 38.0825 23.8347C39.1113 24.4348 40.2152 24.7349 41.3941 24.7349Z"/>
<path d="M52.9756 10.8134H54.0044V14.1571C54.4331 13.1068 55.0547 12.2816 55.8692 11.6815C56.7051 11.0813 57.6482 10.7812 58.6985 10.7812C59.363 10.7812 60.0381 10.9205 60.724 11.1992V12.3888C60.1024 11.9172 59.4058 11.6815 58.6342 11.6815C57.8626 11.6815 57.1124 11.9172 56.3836 12.3888C55.6763 12.8603 55.0975 13.4926 54.6474 14.2857C54.2187 15.0788 54.0044 15.9254 54.0044 16.8257V25.2815H52.9756V10.8134Z"/>
<path d="M70.8617 25.6351C69.5543 25.6351 68.2896 25.2815 67.0679 24.5741C65.8676 23.8668 64.9459 22.9344 64.3029 21.777V25.2815H63.274V1.16797H64.3029V14.4786C64.8816 13.2569 65.7818 12.2816 67.0036 11.5528C68.2253 10.8241 69.5114 10.4597 70.8617 10.4597C72.255 10.4597 73.5303 10.8026 74.6878 11.4885C75.8666 12.1744 76.799 13.0961 77.4849 14.2536C78.1708 15.411 78.5138 16.6756 78.5138 18.0474C78.5138 19.4192 78.1708 20.6838 77.4849 21.8413C76.799 22.9987 75.8666 23.9204 74.6878 24.6063C73.5303 25.2922 72.255 25.6351 70.8617 25.6351ZM70.926 24.7349C72.1049 24.7349 73.1981 24.4348 74.2055 23.8347C75.2129 23.2131 76.006 22.3986 76.5847 21.3912C77.1848 20.3623 77.4849 19.2477 77.4849 18.0474C77.4849 16.8685 77.1848 15.7647 76.5847 14.7358C75.9845 13.707 75.1807 12.8925 74.1733 12.2923C73.1659 11.6707 72.0728 11.3599 70.8939 11.3599C69.715 11.3599 68.6112 11.6707 67.5823 12.2923C66.5749 12.9139 65.7604 13.7391 65.1388 14.768C64.5387 15.7968 64.2386 16.9007 64.2386 18.0796C64.2386 19.2584 64.5387 20.3623 65.1388 21.3912C65.7604 22.3986 66.5856 23.2131 67.6145 23.8347C68.6433 24.4348 69.7472 24.7349 70.926 24.7349Z"/>
<path d="M87.7161 31.6796C85.3154 31.6796 83.4185 30.8222 82.0253 29.1075V27.4678C82.7326 28.5823 83.5364 29.4075 84.4366 29.9434C85.3369 30.5007 86.3871 30.7793 87.5875 30.7793C88.8092 30.7793 89.8488 30.5221 90.7061 30.0077C91.5849 29.4933 92.2494 28.786 92.6995 27.8857C93.1496 27.0069 93.3747 26.0209 93.3747 24.9278V22.4843C92.8603 23.4917 92.0779 24.2741 91.0277 24.8313C89.9988 25.3672 88.8735 25.6351 87.6518 25.6351C86.43 25.6351 85.3476 25.3672 84.4045 24.8313C83.4614 24.2955 82.7219 23.5453 82.186 22.5807C81.6716 21.6162 81.4144 20.5016 81.4144 19.237V10.8134H82.4433V19.237C82.4433 20.3945 82.679 21.3912 83.1506 22.2271C83.6436 23.0416 84.2866 23.6632 85.0797 24.0919C85.8727 24.5205 86.7408 24.7349 87.6839 24.7349C88.7128 24.7349 89.6666 24.4884 90.5454 23.9954C91.4242 23.481 92.1101 22.8058 92.6031 21.9699C93.1175 21.1125 93.3747 20.2016 93.3747 19.237V10.8134H94.4035V24.8313C94.4035 26.1174 94.1356 27.2748 93.5998 28.3037C93.0853 29.354 92.3244 30.1792 91.317 30.7793C90.3096 31.3795 89.1093 31.6796 87.7161 31.6796Z"/>
</mask>
<path d="M1.42041 10.8134H2.44925V14.0285C2.92081 12.9568 3.72459 12.0994 4.8606 11.4564C5.99662 10.7919 7.25052 10.4597 8.62231 10.4597C10.4013 10.4597 11.8053 11.0277 12.8341 12.1637C13.8844 13.2783 14.4095 14.843 14.4095 16.8578V25.2815H13.3807V16.8578C13.3807 15.1216 12.952 13.7713 12.0947 12.8067C11.2587 11.8422 10.0798 11.3599 8.55801 11.3599C7.44343 11.3599 6.41458 11.6172 5.47148 12.1316C4.54981 12.6246 3.81033 13.3105 3.25304 14.1893C2.71718 15.0681 2.44925 16.0647 2.44925 17.1793V25.2815H1.42041V10.8134Z" fill="black"/>
<path d="M25.5105 24.767C26.6251 24.767 27.6861 24.4777 28.6935 23.899C29.7009 23.3202 30.5369 22.5272 31.2013 21.5198V23.1595C30.4083 24.0383 29.5402 24.6813 28.5971 25.0886C27.654 25.4744 26.5823 25.6673 25.3819 25.6673C24.053 25.6673 22.7991 25.3136 21.6202 24.6063C20.4628 23.899 19.5304 22.9559 18.8231 21.777C18.1372 20.5981 17.7942 19.3442 17.7942 18.0153C17.7942 16.5792 18.1372 15.2931 18.8231 14.1571C19.509 12.9997 20.4414 12.0994 21.6202 11.4564C22.8205 10.8134 24.1495 10.4919 25.607 10.4919C27.8362 10.4919 29.7331 11.3707 31.2978 13.1283L21.2023 23.0952C21.9096 23.6739 22.5955 24.1026 23.26 24.3812C23.9244 24.6384 24.6746 24.767 25.5105 24.767ZM18.8231 17.9188C18.8231 19.6978 19.4125 21.2197 20.5914 22.4843L30.0117 13.1283C29.3044 12.5067 28.6185 12.0673 27.954 11.8101C27.2896 11.5314 26.4965 11.3921 25.5748 11.3921C24.2674 11.3921 23.0992 11.6815 22.0704 12.2602C21.0629 12.8175 20.2699 13.5891 19.6912 14.5751C19.1124 15.561 18.8231 16.6756 18.8231 17.9188Z" fill="black"/>
<path d="M41.3298 25.6351C39.958 25.6351 38.6826 25.2922 37.5037 24.6063C36.3249 23.9204 35.3925 22.9987 34.7066 21.8413C34.0207 20.6624 33.6777 19.3978 33.6777 18.0474C33.6777 16.6971 34.0207 15.4432 34.7066 14.2857C35.3925 13.1068 36.3249 12.1744 37.5037 11.4885C38.6826 10.8026 39.958 10.4597 41.3298 10.4597C42.723 10.4597 44.0412 10.8348 45.2844 11.585C46.5275 12.3138 47.3956 13.2676 47.8886 14.4465V10.8134H48.9175V25.2815H47.8886V21.6805C47.3099 22.8808 46.4097 23.8454 45.1879 24.5741C43.9876 25.2815 42.7015 25.6351 41.3298 25.6351ZM41.3941 24.7349C42.5729 24.7349 43.6661 24.4348 44.6735 23.8347C45.6809 23.2131 46.474 22.3986 47.0527 21.3912C47.6528 20.3623 47.9529 19.2477 47.9529 18.0474C47.9529 16.8685 47.6528 15.7647 47.0527 14.7358C46.4525 13.707 45.6487 12.8925 44.6413 12.2923C43.6339 11.6707 42.5408 11.3599 41.3619 11.3599C40.183 11.3599 39.0792 11.6707 38.0503 12.2923C37.0429 12.9139 36.2284 13.7391 35.6068 14.768C35.0067 15.7968 34.7066 16.9007 34.7066 18.0796C34.7066 19.2584 35.0067 20.3623 35.6068 21.3912C36.2284 22.3986 37.0536 23.2131 38.0825 23.8347C39.1113 24.4348 40.2152 24.7349 41.3941 24.7349Z" fill="black"/>
<path d="M52.9756 10.8134H54.0044V14.1571C54.4331 13.1068 55.0547 12.2816 55.8692 11.6815C56.7051 11.0813 57.6482 10.7812 58.6985 10.7812C59.363 10.7812 60.0381 10.9205 60.724 11.1992V12.3888C60.1024 11.9172 59.4058 11.6815 58.6342 11.6815C57.8626 11.6815 57.1124 11.9172 56.3836 12.3888C55.6763 12.8603 55.0975 13.4926 54.6474 14.2857C54.2187 15.0788 54.0044 15.9254 54.0044 16.8257V25.2815H52.9756V10.8134Z" fill="black"/>
<path d="M70.8617 25.6351C69.5543 25.6351 68.2896 25.2815 67.0679 24.5741C65.8676 23.8668 64.9459 22.9344 64.3029 21.777V25.2815H63.274V1.16797H64.3029V14.4786C64.8816 13.2569 65.7818 12.2816 67.0036 11.5528C68.2253 10.8241 69.5114 10.4597 70.8617 10.4597C72.255 10.4597 73.5303 10.8026 74.6878 11.4885C75.8666 12.1744 76.799 13.0961 77.4849 14.2536C78.1708 15.411 78.5138 16.6756 78.5138 18.0474C78.5138 19.4192 78.1708 20.6838 77.4849 21.8413C76.799 22.9987 75.8666 23.9204 74.6878 24.6063C73.5303 25.2922 72.255 25.6351 70.8617 25.6351ZM70.926 24.7349C72.1049 24.7349 73.1981 24.4348 74.2055 23.8347C75.2129 23.2131 76.006 22.3986 76.5847 21.3912C77.1848 20.3623 77.4849 19.2477 77.4849 18.0474C77.4849 16.8685 77.1848 15.7647 76.5847 14.7358C75.9845 13.707 75.1807 12.8925 74.1733 12.2923C73.1659 11.6707 72.0728 11.3599 70.8939 11.3599C69.715 11.3599 68.6112 11.6707 67.5823 12.2923C66.5749 12.9139 65.7604 13.7391 65.1388 14.768C64.5387 15.7968 64.2386 16.9007 64.2386 18.0796C64.2386 19.2584 64.5387 20.3623 65.1388 21.3912C65.7604 22.3986 66.5856 23.2131 67.6145 23.8347C68.6433 24.4348 69.7472 24.7349 70.926 24.7349Z" fill="black"/>
<path d="M87.7161 31.6796C85.3154 31.6796 83.4185 30.8222 82.0253 29.1075V27.4678C82.7326 28.5823 83.5364 29.4075 84.4366 29.9434C85.3369 30.5007 86.3871 30.7793 87.5875 30.7793C88.8092 30.7793 89.8488 30.5221 90.7061 30.0077C91.5849 29.4933 92.2494 28.786 92.6995 27.8857C93.1496 27.0069 93.3747 26.0209 93.3747 24.9278V22.4843C92.8603 23.4917 92.0779 24.2741 91.0277 24.8313C89.9988 25.3672 88.8735 25.6351 87.6518 25.6351C86.43 25.6351 85.3476 25.3672 84.4045 24.8313C83.4614 24.2955 82.7219 23.5453 82.186 22.5807C81.6716 21.6162 81.4144 20.5016 81.4144 19.237V10.8134H82.4433V19.237C82.4433 20.3945 82.679 21.3912 83.1506 22.2271C83.6436 23.0416 84.2866 23.6632 85.0797 24.0919C85.8727 24.5205 86.7408 24.7349 87.6839 24.7349C88.7128 24.7349 89.6666 24.4884 90.5454 23.9954C91.4242 23.481 92.1101 22.8058 92.6031 21.9699C93.1175 21.1125 93.3747 20.2016 93.3747 19.237V10.8134H94.4035V24.8313C94.4035 26.1174 94.1356 27.2748 93.5998 28.3037C93.0853 29.354 92.3244 30.1792 91.317 30.7793C90.3096 31.3795 89.1093 31.6796 87.7161 31.6796Z" fill="black"/>
<path d="M1.42041 10.8134H2.44925V14.0285C2.92081 12.9568 3.72459 12.0994 4.8606 11.4564C5.99662 10.7919 7.25052 10.4597 8.62231 10.4597C10.4013 10.4597 11.8053 11.0277 12.8341 12.1637C13.8844 13.2783 14.4095 14.843 14.4095 16.8578V25.2815H13.3807V16.8578C13.3807 15.1216 12.952 13.7713 12.0947 12.8067C11.2587 11.8422 10.0798 11.3599 8.55801 11.3599C7.44343 11.3599 6.41458 11.6172 5.47148 12.1316C4.54981 12.6246 3.81033 13.3105 3.25304 14.1893C2.71718 15.0681 2.44925 16.0647 2.44925 17.1793V25.2815H1.42041V10.8134Z" stroke="black" stroke-width="1.83722" mask="url(#path-1-outside-1_61_255)"/>
<path d="M25.5105 24.767C26.6251 24.767 27.6861 24.4777 28.6935 23.899C29.7009 23.3202 30.5369 22.5272 31.2013 21.5198V23.1595C30.4083 24.0383 29.5402 24.6813 28.5971 25.0886C27.654 25.4744 26.5823 25.6673 25.3819 25.6673C24.053 25.6673 22.7991 25.3136 21.6202 24.6063C20.4628 23.899 19.5304 22.9559 18.8231 21.777C18.1372 20.5981 17.7942 19.3442 17.7942 18.0153C17.7942 16.5792 18.1372 15.2931 18.8231 14.1571C19.509 12.9997 20.4414 12.0994 21.6202 11.4564C22.8205 10.8134 24.1495 10.4919 25.607 10.4919C27.8362 10.4919 29.7331 11.3707 31.2978 13.1283L21.2023 23.0952C21.9096 23.6739 22.5955 24.1026 23.26 24.3812C23.9244 24.6384 24.6746 24.767 25.5105 24.767ZM18.8231 17.9188C18.8231 19.6978 19.4125 21.2197 20.5914 22.4843L30.0117 13.1283C29.3044 12.5067 28.6185 12.0673 27.954 11.8101C27.2896 11.5314 26.4965 11.3921 25.5748 11.3921C24.2674 11.3921 23.0992 11.6815 22.0704 12.2602C21.0629 12.8175 20.2699 13.5891 19.6912 14.5751C19.1124 15.561 18.8231 16.6756 18.8231 17.9188Z" stroke="black" stroke-width="1.83722" mask="url(#path-1-outside-1_61_255)"/>
<path d="M41.3298 25.6351C39.958 25.6351 38.6826 25.2922 37.5037 24.6063C36.3249 23.9204 35.3925 22.9987 34.7066 21.8413C34.0207 20.6624 33.6777 19.3978 33.6777 18.0474C33.6777 16.6971 34.0207 15.4432 34.7066 14.2857C35.3925 13.1068 36.3249 12.1744 37.5037 11.4885C38.6826 10.8026 39.958 10.4597 41.3298 10.4597C42.723 10.4597 44.0412 10.8348 45.2844 11.585C46.5275 12.3138 47.3956 13.2676 47.8886 14.4465V10.8134H48.9175V25.2815H47.8886V21.6805C47.3099 22.8808 46.4097 23.8454 45.1879 24.5741C43.9876 25.2815 42.7015 25.6351 41.3298 25.6351ZM41.3941 24.7349C42.5729 24.7349 43.6661 24.4348 44.6735 23.8347C45.6809 23.2131 46.474 22.3986 47.0527 21.3912C47.6528 20.3623 47.9529 19.2477 47.9529 18.0474C47.9529 16.8685 47.6528 15.7647 47.0527 14.7358C46.4525 13.707 45.6487 12.8925 44.6413 12.2923C43.6339 11.6707 42.5408 11.3599 41.3619 11.3599C40.183 11.3599 39.0792 11.6707 38.0503 12.2923C37.0429 12.9139 36.2284 13.7391 35.6068 14.768C35.0067 15.7968 34.7066 16.9007 34.7066 18.0796C34.7066 19.2584 35.0067 20.3623 35.6068 21.3912C36.2284 22.3986 37.0536 23.2131 38.0825 23.8347C39.1113 24.4348 40.2152 24.7349 41.3941 24.7349Z" stroke="black" stroke-width="1.83722" mask="url(#path-1-outside-1_61_255)"/>
<path d="M52.9756 10.8134H54.0044V14.1571C54.4331 13.1068 55.0547 12.2816 55.8692 11.6815C56.7051 11.0813 57.6482 10.7812 58.6985 10.7812C59.363 10.7812 60.0381 10.9205 60.724 11.1992V12.3888C60.1024 11.9172 59.4058 11.6815 58.6342 11.6815C57.8626 11.6815 57.1124 11.9172 56.3836 12.3888C55.6763 12.8603 55.0975 13.4926 54.6474 14.2857C54.2187 15.0788 54.0044 15.9254 54.0044 16.8257V25.2815H52.9756V10.8134Z" stroke="black" stroke-width="1.83722" mask="url(#path-1-outside-1_61_255)"/>
<path d="M70.8617 25.6351C69.5543 25.6351 68.2896 25.2815 67.0679 24.5741C65.8676 23.8668 64.9459 22.9344 64.3029 21.777V25.2815H63.274V1.16797H64.3029V14.4786C64.8816 13.2569 65.7818 12.2816 67.0036 11.5528C68.2253 10.8241 69.5114 10.4597 70.8617 10.4597C72.255 10.4597 73.5303 10.8026 74.6878 11.4885C75.8666 12.1744 76.799 13.0961 77.4849 14.2536C78.1708 15.411 78.5138 16.6756 78.5138 18.0474C78.5138 19.4192 78.1708 20.6838 77.4849 21.8413C76.799 22.9987 75.8666 23.9204 74.6878 24.6063C73.5303 25.2922 72.255 25.6351 70.8617 25.6351ZM70.926 24.7349C72.1049 24.7349 73.1981 24.4348 74.2055 23.8347C75.2129 23.2131 76.006 22.3986 76.5847 21.3912C77.1848 20.3623 77.4849 19.2477 77.4849 18.0474C77.4849 16.8685 77.1848 15.7647 76.5847 14.7358C75.9845 13.707 75.1807 12.8925 74.1733 12.2923C73.1659 11.6707 72.0728 11.3599 70.8939 11.3599C69.715 11.3599 68.6112 11.6707 67.5823 12.2923C66.5749 12.9139 65.7604 13.7391 65.1388 14.768C64.5387 15.7968 64.2386 16.9007 64.2386 18.0796C64.2386 19.2584 64.5387 20.3623 65.1388 21.3912C65.7604 22.3986 66.5856 23.2131 67.6145 23.8347C68.6433 24.4348 69.7472 24.7349 70.926 24.7349Z" stroke="black" stroke-width="1.83722" mask="url(#path-1-outside-1_61_255)"/>
<path d="M87.7161 31.6796C85.3154 31.6796 83.4185 30.8222 82.0253 29.1075V27.4678C82.7326 28.5823 83.5364 29.4075 84.4366 29.9434C85.3369 30.5007 86.3871 30.7793 87.5875 30.7793C88.8092 30.7793 89.8488 30.5221 90.7061 30.0077C91.5849 29.4933 92.2494 28.786 92.6995 27.8857C93.1496 27.0069 93.3747 26.0209 93.3747 24.9278V22.4843C92.8603 23.4917 92.0779 24.2741 91.0277 24.8313C89.9988 25.3672 88.8735 25.6351 87.6518 25.6351C86.43 25.6351 85.3476 25.3672 84.4045 24.8313C83.4614 24.2955 82.7219 23.5453 82.186 22.5807C81.6716 21.6162 81.4144 20.5016 81.4144 19.237V10.8134H82.4433V19.237C82.4433 20.3945 82.679 21.3912 83.1506 22.2271C83.6436 23.0416 84.2866 23.6632 85.0797 24.0919C85.8727 24.5205 86.7408 24.7349 87.6839 24.7349C88.7128 24.7349 89.6666 24.4884 90.5454 23.9954C91.4242 23.481 92.1101 22.8058 92.6031 21.9699C93.1175 21.1125 93.3747 20.2016 93.3747 19.237V10.8134H94.4035V24.8313C94.4035 26.1174 94.1356 27.2748 93.5998 28.3037C93.0853 29.354 92.3244 30.1792 91.317 30.7793C90.3096 31.3795 89.1093 31.6796 87.7161 31.6796Z" stroke="black" stroke-width="1.83722" mask="url(#path-1-outside-1_61_255)"/>
</svg>
