<svg width="92" height="33" viewBox="0 0 92 33" fill="none" xmlns="http://www.w3.org/2000/svg">
<mask id="path-1-outside-1_83_16" maskUnits="userSpaceOnUse" x="0.00708008" y="0.773682" width="92" height="32" fill="black">
<rect fill="white" x="0.00708008" y="0.773682" width="92" height="32"/>
<path d="M1.00708 11.1089H2.00284V14.2206C2.45923 13.1834 3.23716 12.3536 4.33664 11.7312C5.43612 11.0882 6.6497 10.7666 7.97738 10.7666C9.69921 10.7666 11.058 11.3164 12.0538 12.4158C13.0703 13.4946 13.5785 15.0089 13.5785 16.959V25.1117H12.5828V16.959C12.5828 15.2786 12.1679 13.9717 11.3381 13.0382C10.529 12.1047 9.38803 11.6379 7.91514 11.6379C6.83641 11.6379 5.84065 11.8868 4.92787 12.3847C4.03584 12.8618 3.32014 13.5257 2.78077 14.3762C2.26215 15.2268 2.00284 16.1914 2.00284 17.2701V25.1117H1.00708V11.1089Z"/>
<path d="M24.3225 24.6139C25.4013 24.6139 26.4281 24.3338 27.4031 23.7737C28.3782 23.2136 29.1872 22.446 29.8303 21.471V23.058C29.0627 23.9085 28.2226 24.5309 27.3098 24.925C26.397 25.2984 25.3598 25.4851 24.198 25.4851C22.9119 25.4851 21.6983 25.1428 20.5573 24.4583C19.4371 23.7737 18.5347 22.8609 17.8501 21.7199C17.1863 20.579 16.8543 19.3654 16.8543 18.0792C16.8543 16.6893 17.1863 15.4446 17.8501 14.3451C18.5139 13.2249 19.4163 12.3536 20.5573 11.7312C21.719 11.1089 23.0052 10.7977 24.4159 10.7977C26.5733 10.7977 28.4093 11.6483 29.9236 13.3494L20.1528 22.9957C20.8374 23.5559 21.5012 23.9708 22.1443 24.2404C22.7874 24.4894 23.5135 24.6139 24.3225 24.6139ZM17.8501 17.9858C17.8501 19.7077 18.4206 21.1806 19.5616 22.4045L28.679 13.3494C27.9944 12.7478 27.3305 12.3225 26.6874 12.0735C26.0443 11.8039 25.2768 11.669 24.3848 11.669C23.1193 11.669 21.9887 11.9491 20.993 12.5092C20.0179 13.0486 19.2504 13.7954 18.6903 14.7496C18.1302 15.7039 17.8501 16.7826 17.8501 17.9858Z"/>
<path d="M39.633 25.454C38.3053 25.454 37.071 25.1221 35.93 24.4583C34.7891 23.7944 33.8867 22.9024 33.2228 21.7822C32.559 20.6412 32.2271 19.4172 32.2271 18.1103C32.2271 16.8034 32.559 15.5898 33.2228 14.4696C33.8867 13.3286 34.7891 12.4262 35.93 11.7624C37.071 11.0985 38.3053 10.7666 39.633 10.7666C40.9814 10.7666 42.2572 11.1296 43.4604 11.8557C44.6637 12.561 45.5038 13.4842 45.981 14.6252V11.1089H46.9767V25.1117H45.981V21.6266C45.4208 22.7883 44.5496 23.7218 43.3671 24.4271C42.2054 25.1117 40.9607 25.454 39.633 25.454ZM39.6952 24.5827C40.8362 24.5827 41.8942 24.2923 42.8692 23.7114C43.8442 23.1098 44.6118 22.3215 45.1719 21.3465C45.7528 20.3508 46.0432 19.272 46.0432 18.1103C46.0432 16.9693 45.7528 15.901 45.1719 14.9052C44.591 13.9095 43.8131 13.1212 42.8381 12.5403C41.8631 11.9387 40.8051 11.6379 39.6641 11.6379C38.5232 11.6379 37.4548 11.9387 36.459 12.5403C35.484 13.1419 34.6957 13.9406 34.0941 14.9363C33.5133 15.9321 33.2228 17.0005 33.2228 18.1414C33.2228 19.2824 33.5133 20.3508 34.0941 21.3465C34.6957 22.3215 35.4944 23.1098 36.4902 23.7114C37.4859 24.2923 38.5543 24.5827 39.6952 24.5827Z"/>
<path d="M50.9043 11.1089H51.9001V14.3451C52.315 13.3286 52.9166 12.5299 53.7049 11.9491C54.5139 11.3682 55.4267 11.0778 56.4432 11.0778C57.0863 11.0778 57.7398 11.2126 58.4036 11.4823V12.6337C57.802 12.1773 57.1278 11.9491 56.381 11.9491C55.6342 11.9491 54.9081 12.1773 54.2028 12.6337C53.5182 13.09 52.9581 13.702 52.5224 14.4696C52.1075 15.2371 51.9001 16.0566 51.9001 16.9279V25.1117H50.9043V11.1089Z"/>
<path d="M68.2153 25.454C66.9499 25.454 65.7259 25.1117 64.5435 24.4271C63.3817 23.7426 62.4897 22.8402 61.8674 21.7199V25.1117H60.8716V1.77368H61.8674V14.6563C62.4275 13.4738 63.2988 12.5299 64.4812 11.8246C65.6637 11.1193 66.9084 10.7666 68.2153 10.7666C69.5637 10.7666 70.798 11.0985 71.9183 11.7624C73.0592 12.4262 73.9617 13.3182 74.6255 14.4385C75.2893 15.5587 75.6212 16.7826 75.6212 18.1103C75.6212 19.438 75.2893 20.6619 74.6255 21.7822C73.9617 22.9024 73.0592 23.7944 71.9183 24.4583C70.798 25.1221 69.5637 25.454 68.2153 25.454ZM68.2775 24.5827C69.4185 24.5827 70.4765 24.2923 71.4515 23.7114C72.4265 23.1098 73.1941 22.3215 73.7542 21.3465C74.3351 20.3508 74.6255 19.272 74.6255 18.1103C74.6255 16.9693 74.3351 15.901 73.7542 14.9052C73.1733 13.9095 72.3954 13.1212 71.4204 12.5403C70.4454 11.9387 69.3874 11.6379 68.2464 11.6379C67.1055 11.6379 66.0371 11.9387 65.0413 12.5403C64.0663 13.1419 63.278 13.9406 62.6764 14.9363C62.0956 15.9321 61.8051 17.0005 61.8051 18.1414C61.8051 19.2824 62.0956 20.3508 62.6764 21.3465C63.278 22.3215 64.0767 23.1098 65.0724 23.7114C66.0682 24.2923 67.1366 24.5827 68.2775 24.5827Z"/>
<path d="M84.5276 31.3041C82.2042 31.3041 80.3683 30.4743 79.0199 28.8147V27.2277C79.7044 28.3064 80.4824 29.1051 81.3537 29.6238C82.2249 30.1631 83.2414 30.4328 84.4032 30.4328C85.5856 30.4328 86.5917 30.1839 87.4215 29.686C88.2721 29.1881 88.9152 28.5035 89.3508 27.6322C89.7865 26.7817 90.0043 25.8274 90.0043 24.7694V22.4045C89.5064 23.3795 88.7492 24.1367 87.7327 24.6761C86.737 25.1947 85.6479 25.454 84.4654 25.454C83.2829 25.454 82.2353 25.1947 81.3225 24.6761C80.4098 24.1575 79.6941 23.4314 79.1754 22.4979C78.6776 21.5643 78.4286 20.4856 78.4286 19.2617V11.1089H79.4244V19.2617C79.4244 20.3819 79.6526 21.3465 80.109 22.1556C80.5861 22.9439 81.2084 23.5455 81.976 23.9604C82.7436 24.3753 83.5837 24.5827 84.4965 24.5827C85.4923 24.5827 86.4154 24.3442 87.266 23.867C88.1165 23.3692 88.7803 22.7157 89.2575 21.9066C89.7553 21.0768 90.0043 20.1952 90.0043 19.2617V11.1089H91V24.6761C91 25.9208 90.7407 27.041 90.2221 28.0368C89.7242 29.0533 88.9878 29.8519 88.0128 30.4328C87.0378 31.0137 85.8761 31.3041 84.5276 31.3041Z"/>
</mask>
<path d="M1.00708 11.1089H2.00284V14.2206C2.45923 13.1834 3.23716 12.3536 4.33664 11.7312C5.43612 11.0882 6.6497 10.7666 7.97738 10.7666C9.69921 10.7666 11.058 11.3164 12.0538 12.4158C13.0703 13.4946 13.5785 15.0089 13.5785 16.959V25.1117H12.5828V16.959C12.5828 15.2786 12.1679 13.9717 11.3381 13.0382C10.529 12.1047 9.38803 11.6379 7.91514 11.6379C6.83641 11.6379 5.84065 11.8868 4.92787 12.3847C4.03584 12.8618 3.32014 13.5257 2.78077 14.3762C2.26215 15.2268 2.00284 16.1914 2.00284 17.2701V25.1117H1.00708V11.1089Z" fill="white"/>
<path d="M24.3225 24.6139C25.4013 24.6139 26.4281 24.3338 27.4031 23.7737C28.3782 23.2136 29.1872 22.446 29.8303 21.471V23.058C29.0627 23.9085 28.2226 24.5309 27.3098 24.925C26.397 25.2984 25.3598 25.4851 24.198 25.4851C22.9119 25.4851 21.6983 25.1428 20.5573 24.4583C19.4371 23.7737 18.5347 22.8609 17.8501 21.7199C17.1863 20.579 16.8543 19.3654 16.8543 18.0792C16.8543 16.6893 17.1863 15.4446 17.8501 14.3451C18.5139 13.2249 19.4163 12.3536 20.5573 11.7312C21.719 11.1089 23.0052 10.7977 24.4159 10.7977C26.5733 10.7977 28.4093 11.6483 29.9236 13.3494L20.1528 22.9957C20.8374 23.5559 21.5012 23.9708 22.1443 24.2404C22.7874 24.4894 23.5135 24.6139 24.3225 24.6139ZM17.8501 17.9858C17.8501 19.7077 18.4206 21.1806 19.5616 22.4045L28.679 13.3494C27.9944 12.7478 27.3305 12.3225 26.6874 12.0735C26.0443 11.8039 25.2768 11.669 24.3848 11.669C23.1193 11.669 21.9887 11.9491 20.993 12.5092C20.0179 13.0486 19.2504 13.7954 18.6903 14.7496C18.1302 15.7039 17.8501 16.7826 17.8501 17.9858Z" fill="white"/>
<path d="M39.633 25.454C38.3053 25.454 37.071 25.1221 35.93 24.4583C34.7891 23.7944 33.8867 22.9024 33.2228 21.7822C32.559 20.6412 32.2271 19.4172 32.2271 18.1103C32.2271 16.8034 32.559 15.5898 33.2228 14.4696C33.8867 13.3286 34.7891 12.4262 35.93 11.7624C37.071 11.0985 38.3053 10.7666 39.633 10.7666C40.9814 10.7666 42.2572 11.1296 43.4604 11.8557C44.6637 12.561 45.5038 13.4842 45.981 14.6252V11.1089H46.9767V25.1117H45.981V21.6266C45.4208 22.7883 44.5496 23.7218 43.3671 24.4271C42.2054 25.1117 40.9607 25.454 39.633 25.454ZM39.6952 24.5827C40.8362 24.5827 41.8942 24.2923 42.8692 23.7114C43.8442 23.1098 44.6118 22.3215 45.1719 21.3465C45.7528 20.3508 46.0432 19.272 46.0432 18.1103C46.0432 16.9693 45.7528 15.901 45.1719 14.9052C44.591 13.9095 43.8131 13.1212 42.8381 12.5403C41.8631 11.9387 40.8051 11.6379 39.6641 11.6379C38.5232 11.6379 37.4548 11.9387 36.459 12.5403C35.484 13.1419 34.6957 13.9406 34.0941 14.9363C33.5133 15.9321 33.2228 17.0005 33.2228 18.1414C33.2228 19.2824 33.5133 20.3508 34.0941 21.3465C34.6957 22.3215 35.4944 23.1098 36.4902 23.7114C37.4859 24.2923 38.5543 24.5827 39.6952 24.5827Z" fill="white"/>
<path d="M50.9043 11.1089H51.9001V14.3451C52.315 13.3286 52.9166 12.5299 53.7049 11.9491C54.5139 11.3682 55.4267 11.0778 56.4432 11.0778C57.0863 11.0778 57.7398 11.2126 58.4036 11.4823V12.6337C57.802 12.1773 57.1278 11.9491 56.381 11.9491C55.6342 11.9491 54.9081 12.1773 54.2028 12.6337C53.5182 13.09 52.9581 13.702 52.5224 14.4696C52.1075 15.2371 51.9001 16.0566 51.9001 16.9279V25.1117H50.9043V11.1089Z" fill="white"/>
<path d="M68.2153 25.454C66.9499 25.454 65.7259 25.1117 64.5435 24.4271C63.3817 23.7426 62.4897 22.8402 61.8674 21.7199V25.1117H60.8716V1.77368H61.8674V14.6563C62.4275 13.4738 63.2988 12.5299 64.4812 11.8246C65.6637 11.1193 66.9084 10.7666 68.2153 10.7666C69.5637 10.7666 70.798 11.0985 71.9183 11.7624C73.0592 12.4262 73.9617 13.3182 74.6255 14.4385C75.2893 15.5587 75.6212 16.7826 75.6212 18.1103C75.6212 19.438 75.2893 20.6619 74.6255 21.7822C73.9617 22.9024 73.0592 23.7944 71.9183 24.4583C70.798 25.1221 69.5637 25.454 68.2153 25.454ZM68.2775 24.5827C69.4185 24.5827 70.4765 24.2923 71.4515 23.7114C72.4265 23.1098 73.1941 22.3215 73.7542 21.3465C74.3351 20.3508 74.6255 19.272 74.6255 18.1103C74.6255 16.9693 74.3351 15.901 73.7542 14.9052C73.1733 13.9095 72.3954 13.1212 71.4204 12.5403C70.4454 11.9387 69.3874 11.6379 68.2464 11.6379C67.1055 11.6379 66.0371 11.9387 65.0413 12.5403C64.0663 13.1419 63.278 13.9406 62.6764 14.9363C62.0956 15.9321 61.8051 17.0005 61.8051 18.1414C61.8051 19.2824 62.0956 20.3508 62.6764 21.3465C63.278 22.3215 64.0767 23.1098 65.0724 23.7114C66.0682 24.2923 67.1366 24.5827 68.2775 24.5827Z" fill="white"/>
<path d="M84.5276 31.3041C82.2042 31.3041 80.3683 30.4743 79.0199 28.8147V27.2277C79.7044 28.3064 80.4824 29.1051 81.3537 29.6238C82.2249 30.1631 83.2414 30.4328 84.4032 30.4328C85.5856 30.4328 86.5917 30.1839 87.4215 29.686C88.2721 29.1881 88.9152 28.5035 89.3508 27.6322C89.7865 26.7817 90.0043 25.8274 90.0043 24.7694V22.4045C89.5064 23.3795 88.7492 24.1367 87.7327 24.6761C86.737 25.1947 85.6479 25.454 84.4654 25.454C83.2829 25.454 82.2353 25.1947 81.3225 24.6761C80.4098 24.1575 79.6941 23.4314 79.1754 22.4979C78.6776 21.5643 78.4286 20.4856 78.4286 19.2617V11.1089H79.4244V19.2617C79.4244 20.3819 79.6526 21.3465 80.109 22.1556C80.5861 22.9439 81.2084 23.5455 81.976 23.9604C82.7436 24.3753 83.5837 24.5827 84.4965 24.5827C85.4923 24.5827 86.4154 24.3442 87.266 23.867C88.1165 23.3692 88.7803 22.7157 89.2575 21.9066C89.7553 21.0768 90.0043 20.1952 90.0043 19.2617V11.1089H91V24.6761C91 25.9208 90.7407 27.041 90.2221 28.0368C89.7242 29.0533 88.9878 29.8519 88.0128 30.4328C87.0378 31.0137 85.8761 31.3041 84.5276 31.3041Z" fill="white"/>
<path d="M1.00708 11.1089H2.00284V14.2206C2.45923 13.1834 3.23716 12.3536 4.33664 11.7312C5.43612 11.0882 6.6497 10.7666 7.97738 10.7666C9.69921 10.7666 11.058 11.3164 12.0538 12.4158C13.0703 13.4946 13.5785 15.0089 13.5785 16.959V25.1117H12.5828V16.959C12.5828 15.2786 12.1679 13.9717 11.3381 13.0382C10.529 12.1047 9.38803 11.6379 7.91514 11.6379C6.83641 11.6379 5.84065 11.8868 4.92787 12.3847C4.03584 12.8618 3.32014 13.5257 2.78077 14.3762C2.26215 15.2268 2.00284 16.1914 2.00284 17.2701V25.1117H1.00708V11.1089Z" stroke="white" stroke-width="1.77814" mask="url(#path-1-outside-1_83_16)"/>
<path d="M24.3225 24.6139C25.4013 24.6139 26.4281 24.3338 27.4031 23.7737C28.3782 23.2136 29.1872 22.446 29.8303 21.471V23.058C29.0627 23.9085 28.2226 24.5309 27.3098 24.925C26.397 25.2984 25.3598 25.4851 24.198 25.4851C22.9119 25.4851 21.6983 25.1428 20.5573 24.4583C19.4371 23.7737 18.5347 22.8609 17.8501 21.7199C17.1863 20.579 16.8543 19.3654 16.8543 18.0792C16.8543 16.6893 17.1863 15.4446 17.8501 14.3451C18.5139 13.2249 19.4163 12.3536 20.5573 11.7312C21.719 11.1089 23.0052 10.7977 24.4159 10.7977C26.5733 10.7977 28.4093 11.6483 29.9236 13.3494L20.1528 22.9957C20.8374 23.5559 21.5012 23.9708 22.1443 24.2404C22.7874 24.4894 23.5135 24.6139 24.3225 24.6139ZM17.8501 17.9858C17.8501 19.7077 18.4206 21.1806 19.5616 22.4045L28.679 13.3494C27.9944 12.7478 27.3305 12.3225 26.6874 12.0735C26.0443 11.8039 25.2768 11.669 24.3848 11.669C23.1193 11.669 21.9887 11.9491 20.993 12.5092C20.0179 13.0486 19.2504 13.7954 18.6903 14.7496C18.1302 15.7039 17.8501 16.7826 17.8501 17.9858Z" stroke="white" stroke-width="1.77814" mask="url(#path-1-outside-1_83_16)"/>
<path d="M39.633 25.454C38.3053 25.454 37.071 25.1221 35.93 24.4583C34.7891 23.7944 33.8867 22.9024 33.2228 21.7822C32.559 20.6412 32.2271 19.4172 32.2271 18.1103C32.2271 16.8034 32.559 15.5898 33.2228 14.4696C33.8867 13.3286 34.7891 12.4262 35.93 11.7624C37.071 11.0985 38.3053 10.7666 39.633 10.7666C40.9814 10.7666 42.2572 11.1296 43.4604 11.8557C44.6637 12.561 45.5038 13.4842 45.981 14.6252V11.1089H46.9767V25.1117H45.981V21.6266C45.4208 22.7883 44.5496 23.7218 43.3671 24.4271C42.2054 25.1117 40.9607 25.454 39.633 25.454ZM39.6952 24.5827C40.8362 24.5827 41.8942 24.2923 42.8692 23.7114C43.8442 23.1098 44.6118 22.3215 45.1719 21.3465C45.7528 20.3508 46.0432 19.272 46.0432 18.1103C46.0432 16.9693 45.7528 15.901 45.1719 14.9052C44.591 13.9095 43.8131 13.1212 42.8381 12.5403C41.8631 11.9387 40.8051 11.6379 39.6641 11.6379C38.5232 11.6379 37.4548 11.9387 36.459 12.5403C35.484 13.1419 34.6957 13.9406 34.0941 14.9363C33.5133 15.9321 33.2228 17.0005 33.2228 18.1414C33.2228 19.2824 33.5133 20.3508 34.0941 21.3465C34.6957 22.3215 35.4944 23.1098 36.4902 23.7114C37.4859 24.2923 38.5543 24.5827 39.6952 24.5827Z" stroke="white" stroke-width="1.77814" mask="url(#path-1-outside-1_83_16)"/>
<path d="M50.9043 11.1089H51.9001V14.3451C52.315 13.3286 52.9166 12.5299 53.7049 11.9491C54.5139 11.3682 55.4267 11.0778 56.4432 11.0778C57.0863 11.0778 57.7398 11.2126 58.4036 11.4823V12.6337C57.802 12.1773 57.1278 11.9491 56.381 11.9491C55.6342 11.9491 54.9081 12.1773 54.2028 12.6337C53.5182 13.09 52.9581 13.702 52.5224 14.4696C52.1075 15.2371 51.9001 16.0566 51.9001 16.9279V25.1117H50.9043V11.1089Z" stroke="white" stroke-width="1.77814" mask="url(#path-1-outside-1_83_16)"/>
<path d="M68.2153 25.454C66.9499 25.454 65.7259 25.1117 64.5435 24.4271C63.3817 23.7426 62.4897 22.8402 61.8674 21.7199V25.1117H60.8716V1.77368H61.8674V14.6563C62.4275 13.4738 63.2988 12.5299 64.4812 11.8246C65.6637 11.1193 66.9084 10.7666 68.2153 10.7666C69.5637 10.7666 70.798 11.0985 71.9183 11.7624C73.0592 12.4262 73.9617 13.3182 74.6255 14.4385C75.2893 15.5587 75.6212 16.7826 75.6212 18.1103C75.6212 19.438 75.2893 20.6619 74.6255 21.7822C73.9617 22.9024 73.0592 23.7944 71.9183 24.4583C70.798 25.1221 69.5637 25.454 68.2153 25.454ZM68.2775 24.5827C69.4185 24.5827 70.4765 24.2923 71.4515 23.7114C72.4265 23.1098 73.1941 22.3215 73.7542 21.3465C74.3351 20.3508 74.6255 19.272 74.6255 18.1103C74.6255 16.9693 74.3351 15.901 73.7542 14.9052C73.1733 13.9095 72.3954 13.1212 71.4204 12.5403C70.4454 11.9387 69.3874 11.6379 68.2464 11.6379C67.1055 11.6379 66.0371 11.9387 65.0413 12.5403C64.0663 13.1419 63.278 13.9406 62.6764 14.9363C62.0956 15.9321 61.8051 17.0005 61.8051 18.1414C61.8051 19.2824 62.0956 20.3508 62.6764 21.3465C63.278 22.3215 64.0767 23.1098 65.0724 23.7114C66.0682 24.2923 67.1366 24.5827 68.2775 24.5827Z" stroke="white" stroke-width="1.77814" mask="url(#path-1-outside-1_83_16)"/>
<path d="M84.5276 31.3041C82.2042 31.3041 80.3683 30.4743 79.0199 28.8147V27.2277C79.7044 28.3064 80.4824 29.1051 81.3537 29.6238C82.2249 30.1631 83.2414 30.4328 84.4032 30.4328C85.5856 30.4328 86.5917 30.1839 87.4215 29.686C88.2721 29.1881 88.9152 28.5035 89.3508 27.6322C89.7865 26.7817 90.0043 25.8274 90.0043 24.7694V22.4045C89.5064 23.3795 88.7492 24.1367 87.7327 24.6761C86.737 25.1947 85.6479 25.454 84.4654 25.454C83.2829 25.454 82.2353 25.1947 81.3225 24.6761C80.4098 24.1575 79.6941 23.4314 79.1754 22.4979C78.6776 21.5643 78.4286 20.4856 78.4286 19.2617V11.1089H79.4244V19.2617C79.4244 20.3819 79.6526 21.3465 80.109 22.1556C80.5861 22.9439 81.2084 23.5455 81.976 23.9604C82.7436 24.3753 83.5837 24.5827 84.4965 24.5827C85.4923 24.5827 86.4154 24.3442 87.266 23.867C88.1165 23.3692 88.7803 22.7157 89.2575 21.9066C89.7553 21.0768 90.0043 20.1952 90.0043 19.2617V11.1089H91V24.6761C91 25.9208 90.7407 27.041 90.2221 28.0368C89.7242 29.0533 88.9878 29.8519 88.0128 30.4328C87.0378 31.0137 85.8761 31.3041 84.5276 31.3041Z" stroke="white" stroke-width="1.77814" mask="url(#path-1-outside-1_83_16)"/>
</svg>
